<?xml version="1.0" encoding="UTF-8"?>
<svg id="Layer_1" data-name="Layer 1" xmlns="http://www.w3.org/2000/svg" viewBox="0 0 62.3 70">
  <defs>
    <style>
      .cls-1 {
        fill: #ea5dc4;
      }
    </style>
  </defs>
  <g id="SVGRepoiconCarrier">
    <path id="Path" class="cls-1" d="M37.13,8.02l14.39,8.32c2.38-2.51,6.35-2.61,8.85-.23,.42,.41,.8,.88,1.09,1.39,1.72,3,.68,6.82-2.33,8.54-.5,.28-1.05,.51-1.63,.65v16.62c3.35,.8,5.41,4.15,4.61,7.5-.14,.59-.38,1.16-.67,1.69-1.73,2.99-5.55,4.01-8.54,2.28-.57-.32-1.09-.75-1.53-1.24l-14.31,8.26c1.08,3.27-.7,6.8-3.97,7.88-.64,.22-1.3,.32-1.96,.32-3.44,0-6.24-2.78-6.24-6.23,0-.59,.09-1.2,.26-1.78l-14.4-8.31c-2.38,2.5-6.33,2.6-8.83,.21-2.48-2.38-2.57-6.32-.21-8.82,.83-.87,1.89-1.48,3.05-1.77V26.68C1.44,25.89-.63,22.52,.18,19.15c.14-.58,.37-1.14,.66-1.65,1.72-2.99,5.55-4.01,8.53-2.28,.51,.3,.99,.66,1.4,1.09l14.4-8.31c-.98-3.3,.91-6.78,4.2-7.75,.57-.18,1.17-.26,1.78-.26,3.44,0,6.24,2.78,6.24,6.22,0,.61-.09,1.22-.26,1.8h0Zm-1.5,2.57c-.06,.06-.1,.11-.17,.17l18.84,32.63c.08-.02,.17-.05,.24-.07V26.68c-3.34-.82-5.37-4.2-4.53-7.54,.01-.07,.03-.15,.05-.22l-14.42-8.33Zm-8.8,.17l-.17-.17-14.42,8.32c.96,3.3-.96,6.76-4.26,7.71-.08,.02-.15,.03-.23,.06v16.64l.25,.07L26.85,10.76h-.01Zm6.06,1.48c-1.14,.32-2.35,.32-3.48,0L10.58,44.87c.86,.82,1.46,1.88,1.75,3.04H49.99c.28-1.16,.89-2.22,1.75-3.05L32.9,12.24Zm2.87,47.33l14.33-8.28c-.05-.14-.08-.27-.11-.41H12.32l-.07,.24,14.41,8.32c1.13-1.17,2.72-1.9,4.49-1.9s3.48,.79,4.61,2.04h0Z"/>
  </g>
</svg>