<?xml version="1.0" encoding="UTF-8"?>
<!-- Generated by Pixelmator Pro 3.2.1 -->
<svg width="100" height="100" viewBox="0 0 100 100" xmlns="http://www.w3.org/2000/svg" xmlns:xlink="http://www.w3.org/1999/xlink">
    <g id="SVGRepobgCarrier"/>
    <g id="SVGRepotracerCarrier"/>
    <g id="SVGRepoiconCarrier">
        <path id="Path" fill="#ea5dc4" stroke="none" d="M 58.543747 11.459373 L 79.099998 23.340622 C 82.50312 19.759377 88.165627 19.612503 91.746872 23.015625 C 92.349998 23.603127 92.887505 24.268753 93.309372 25 C 95.765625 29.28125 94.287506 34.75 89.987495 37.206249 C 89.271873 37.612499 88.490623 37.9375 87.659378 38.134377 L 87.659378 61.881248 C 92.443756 63.021873 95.390625 67.806252 94.25 72.590622 C 94.053123 73.4375 93.712502 74.25 93.290627 75 C 90.815628 79.265625 85.365623 80.728127 81.084373 78.256248 C 80.271873 77.800003 79.521873 77.181252 78.90313 76.481255 L 58.459377 88.28125 C 60.006248 92.953125 57.465626 97.996872 52.793747 99.543747 C 51.881248 99.853119 50.937496 100 49.993752 100 C 45.078125 100 41.075001 96.028122 41.075001 91.09687 C 41.075001 90.25 41.206249 89.387497 41.450001 88.556244 L 20.878126 76.690628 C 17.475 80.256248 11.828125 80.403122 8.265625 76.984375 C 4.71875 73.581253 4.5875 67.949997 7.971875 64.387497 C 9.159375 63.150002 10.674999 62.271873 12.334375 61.865627 L 12.334375 38.118752 C 7.55 36.978127 4.5875 32.162498 5.74375 27.359375 C 5.940625 26.52813 6.265625 25.731247 6.6875 25 C 9.14375 20.734375 14.6125 19.271873 18.878124 21.743752 C 19.609375 22.165627 20.293751 22.6875 20.88125 23.306252 L 41.453125 11.440628 C 40.053127 6.721878 42.756252 1.756248 47.459377 0.371872 C 48.271873 0.112503 49.134373 -0.003128 50 -0.003128 C 54.915627 -0.003128 58.918751 3.96875 58.918751 8.884377 C 58.918751 9.762497 58.787502 10.625 58.543747 11.456253 Z M 56.396877 15.121872 C 56.315624 15.203125 56.25 15.284378 56.153126 15.365623 L 83.074997 61.981247 C 83.1875 61.949997 83.318748 61.915623 83.415627 61.884373 L 83.415627 38.106251 C 78.646873 36.934376 75.75 32.099998 76.9375 27.331253 C 76.953125 27.234375 76.987495 27.118752 77.003128 27.021873 Z M 43.831249 15.365623 L 43.587502 15.121872 L 22.981251 27.003128 C 24.349998 31.721878 21.612499 36.65625 16.893751 38.021873 C 16.78125 38.053123 16.68125 38.071873 16.56875 38.103123 L 16.56875 61.881248 L 16.928123 61.978127 L 43.849998 15.362503 Z M 52.490627 17.481247 C 50.862495 17.9375 49.137501 17.9375 47.525002 17.481247 L 20.603125 64.096878 C 21.825001 65.268753 22.6875 66.78125 23.109375 68.443756 L 76.903122 68.443756 C 77.30938 66.784378 78.171875 65.268753 79.40937 64.081253 Z M 56.590622 85.090622 L 77.06562 73.259377 C 77 73.0625 76.953125 72.868752 76.903122 72.671875 L 23.09375 72.671875 L 22.996876 73.012497 L 43.587502 84.893753 C 45.200001 83.21875 47.478123 82.175003 50 82.175003 C 52.621876 82.175003 54.965626 83.296875 56.590622 85.087502 Z"/>
    </g>
</svg>
