<?xml version="1.0" encoding="UTF-8"?>
<!-- Generated by Pixelmator Pro 3.2.1 -->
<svg width="100" height="100" viewBox="0 0 100 100" xmlns="http://www.w3.org/2000/svg" xmlns:xlink="http://www.w3.org/1999/xlink">
    <path id="Path" fill="#764abc" stroke="none" d="M 69.289452 69.561165 C 72.979691 69.160378 75.779297 65.822937 75.651955 61.817516 C 75.525002 57.812496 72.343361 54.608242 68.52578 54.608242 L 68.271484 54.608242 C 64.326172 54.74184 61.272266 58.212879 61.399609 62.351486 C 61.526955 64.354195 62.290234 66.089714 63.435547 67.29126 C 59.108986 76.236465 52.491798 82.77816 42.566017 88.251907 C 35.821484 91.990143 28.822657 93.325279 21.823828 92.39093 C 16.097265 91.58976 11.643359 88.919891 8.843359 84.51368 C 4.771484 77.971985 4.389844 70.895897 7.825781 63.820225 C 10.24375 58.746849 14.060936 55.008621 16.478907 53.139507 C 15.969922 51.403988 15.20625 48.466923 14.82461 46.331028 C -3.627344 60.349186 -1.718359 79.307121 3.88086 88.251907 C 8.080078 94.927612 16.606251 99.066223 26.023048 99.066223 C 28.567968 99.066223 31.11289 98.799026 33.658203 98.131866 C 49.946877 94.794014 62.290627 84.647278 69.289452 69.561165 Z M 91.686325 53.006321 C 82.014847 41.124058 67.762497 34.582359 51.473827 34.582359 L 49.437889 34.582359 C 48.29258 32.179268 45.874611 30.576935 43.202343 30.576935 L 42.947655 30.576935 C 39.003124 30.710533 35.949219 34.181572 36.076176 38.320591 C 36.203514 42.325603 39.384766 45.529861 43.202343 45.529861 L 43.456642 45.529861 C 46.256248 45.396263 48.674217 43.527149 49.692188 40.990463 L 51.982811 40.990463 C 61.654301 40.990463 70.816399 43.927528 79.08828 49.668468 C 85.450783 54.074268 90.032028 59.815212 92.57695 66.757294 C 94.740234 72.364639 94.612892 77.838379 92.322266 82.511375 C 88.759377 89.587051 82.778519 93.458878 74.888672 93.458878 C 69.798439 93.458878 64.962883 91.856544 62.41758 90.654999 C 61.017963 91.990143 58.472656 94.126038 56.691017 95.461586 C 62.16328 98.131454 67.762497 99.600197 73.107033 99.600197 C 85.323441 99.600197 94.358597 92.524109 97.794533 85.448441 C 101.484764 77.704788 101.230072 64.354195 91.686325 53.006321 Z M 27.041016 71.830254 C 27.16836 75.835678 30.349609 79.03952 34.167187 79.03952 L 34.421875 79.03952 C 38.366798 78.906334 41.420704 75.434883 41.293358 71.296272 C 41.166405 67.290848 37.984764 64.087006 34.167187 64.087006 L 33.912891 64.087006 C 33.658203 64.087006 33.276169 64.087006 33.022266 64.220192 C 27.804688 55.141808 25.641407 45.262669 26.405079 34.581947 C 26.913671 26.571518 29.458984 19.629028 33.912891 13.888084 C 37.603127 8.948311 44.729298 6.545219 49.565235 6.412033 C 63.053905 6.144844 68.780075 23.767639 69.162102 30.843719 C 70.816399 31.244102 73.616013 32.178864 75.525002 32.846436 C 73.997658 11.218628 61.272266 0.003937 49.056252 0.003937 C 37.603127 0.003937 27.041016 8.681938 22.841406 21.49855 C 16.98789 38.587372 20.80547 55.008621 27.931641 67.958832 C 27.295704 68.893181 26.913671 70.361923 27.041016 71.830658 Z"/>
</svg>
