<?xml version="1.0" encoding="UTF-8"?>
<!-- Generated by Pixelmator Pro 3.2.1 -->
<svg width="100" height="100" viewBox="0 0 100 100" xmlns="http://www.w3.org/2000/svg" xmlns:xlink="http://www.w3.org/1999/xlink">
    <linearGradient id="linearGradient1" x1="5.526045" y1="13.285165" x2="56.635938" y2="82.6965" gradientUnits="userSpaceOnUse">
        <stop offset="1e-05" stop-color="#41d1ff" stop-opacity="1"/>
        <stop offset="1" stop-color="#bd34fe" stop-opacity="1"/>
    </linearGradient>
    <path id="Path" fill="url(#linearGradient1)" stroke="none" d="M 93.386253 19.206253 L 52.318127 92.642815 C 51.470001 94.158752 49.291878 94.167809 48.430939 92.659065 L 6.548749 19.213127 C 5.61125 17.568748 7.016875 15.577187 8.88 15.909996 L 49.9925 23.258751 C 50.254726 23.305634 50.523232 23.305214 50.785316 23.2575 L 91.037811 15.920624 C 92.894684 15.582184 94.307503 17.558441 93.386253 19.20594 Z"/>
    <linearGradient id="linearGradient2" x1="47.630545" y1="7.888112" x2="56.876087" y2="71.311482" gradientUnits="userSpaceOnUse">
        <stop offset="1e-05" stop-color="#ffea83" stop-opacity="1"/>
        <stop offset="0.0833" stop-color="#ffdd35" stop-opacity="1"/>
        <stop offset="1" stop-color="#ffa800" stop-opacity="1"/>
    </linearGradient>
    <path id="path1" fill="url(#linearGradient2)" stroke="none" d="M 69.576248 6.271561 L 39.184685 12.226563 C 38.685112 12.324326 38.31501 12.747772 38.285 13.255936 L 36.415627 44.830315 C 36.371876 45.574062 37.054688 46.151249 37.780312 45.983749 L 46.241875 44.03125 C 47.033752 43.848438 47.749062 44.545937 47.58625 45.341877 L 45.072498 57.652187 C 44.903126 58.480309 45.680939 59.189064 46.489998 58.943439 L 51.716251 57.355316 C 52.526562 57.109375 53.305 57.82 53.133751 58.649063 L 49.138748 77.985626 C 48.888748 79.195 50.497501 79.854378 51.168434 78.817497 L 51.616562 78.125 L 76.381248 28.702499 C 76.795937 27.875 76.081253 26.931564 75.171875 27.106873 L 66.462502 28.787811 C 65.643753 28.945625 64.947495 28.183434 65.178436 27.3825 L 70.863129 7.676247 C 71.094376 6.873749 70.395622 6.110939 69.576248 6.271561 Z"/>
</svg>
